<?xml version="1.0" encoding="utf-8"?>
<!-- Generator: Adobe Illustrator 17.0.0, SVG Export Plug-In . SVG Version: 6.00 Build 0)  -->
<!DOCTYPE svg PUBLIC "-//W3C//DTD SVG 1.1//EN" "http://www.w3.org/Graphics/SVG/1.1/DTD/svg11.dtd">
<svg version="1.1" id="Layer_1" xmlns="http://www.w3.org/2000/svg" xmlns:xlink="http://www.w3.org/1999/xlink" x="0px" y="0px"
	 width="10px" height="70px" viewBox="0 0 10 70" enable-background="new 0 0 10 70" xml:space="preserve">
<g>
	<circle fill="#EB3942" cx="5" cy="5" r="5"/>
	
		<rect x="4.573" y="2.198" transform="matrix(0.7071 -0.7071 0.7071 0.7071 -2.0711 5)" fill="#FFFFFF" width="0.854" height="5.604"/>
	
		<rect x="4.573" y="2.198" transform="matrix(-0.7071 -0.7071 0.7071 -0.7071 5 12.0711)" fill="#FFFFFF" width="0.854" height="5.604"/>
</g>
<g>
	<g>
		<path fill="#F3BD19" d="M1.536,19.945c-1.1,0-1.596-0.804-1.103-1.788l3.67-7.315c0.493-0.983,1.3-0.983,1.794,0l3.67,7.315
			c0.493,0.983-0.003,1.788-1.103,1.788H1.536z"/>
	</g>
	<g>
		<path fill="#FFFFFF" d="M4.305,12.857h1.39l-0.344,3.71H4.645L4.305,12.857z M4.46,16.973h1.08v1.169H4.46V16.973z"/>
	</g>
</g>
<polygon fill="#919191" points="2.5,21.5 7.5,25 2.5,28.5 "/>
<polygon fill="#919191" points="8.5,32.5 5,37.5 1.5,32.5 "/>
<g>
	<polygon fill="#BABABA" points="3.563,45 6.563,42.438 6.563,40.729 1.563,45 6.563,49.271 6.563,47.563 	"/>
	<rect x="6.563" y="44.063" fill="#BABABA" width="1.875" height="1.875"/>
</g>
<polygon fill="#919191" points="5.5,55 2.5,52.438 2.5,50.729 7.5,55 2.5,59.271 2.5,57.563 "/>
<polygon fill="#4C75BA" points="5.5,65 2.5,62.438 2.5,60.729 7.5,65 2.5,69.271 2.5,67.563 "/>
</svg>
